<?xml version="1.0" standalone="no"?>
<!DOCTYPE svg PUBLIC "-//W3C//DTD SVG 20010904//EN"
 "http://www.w3.org/TR/2001/REC-SVG-20010904/DTD/svg10.dtd">
<svg version="1.0" xmlns="http://www.w3.org/2000/svg"
 width="1024.000000pt" height="1024.000000pt" viewBox="0 0 1024.000000 1024.000000"
 preserveAspectRatio="xMidYMid meet">

<g transform="translate(0.000000,1024.000000) scale(0.100000,-0.100000)"
fill="#000000" stroke="none">
<path d="M0 5120 l0 -5120 5120 0 5120 0 0 2040 c0 1742 -2 2040 -14 2040 -8
0 -43 -17 -77 -39 -46 -28 -65 -35 -67 -25 -5 20 -15 17 -42 -11 -13 -14 -30
-25 -37 -25 -7 0 -17 -10 -22 -23 -12 -30 -31 -186 -25 -201 3 -7 -7 -22 -21
-34 -24 -21 -32 -22 -111 -16 -71 6 -84 4 -84 -8 0 -9 -7 -21 -16 -29 -16 -13
-26 -6 -37 26 -2 6 -35 10 -73 10 -53 0 -68 3 -66 14 1 7 -1 18 -6 25 -5 6 -9
28 -9 50 -1 21 -6 42 -12 45 -8 5 -9 26 -3 70 9 63 9 63 -21 81 l-29 18 27 14
27 15 -1 139 c-2 184 -6 202 -45 218 l-31 13 27 13 27 13 -1 532 c0 293 3 538
6 544 4 6 4 11 -1 11 -4 0 -7 15 -6 32 1 18 2 33 3 33 0 0 3 45 5 100 6 136
15 205 26 205 5 0 9 6 9 14 0 18 51 36 102 36 36 0 40 3 55 37 l15 37 13 -30
c7 -17 21 -34 31 -38 11 -5 87 -10 169 -13 139 -5 152 -8 178 -29 27 -23 39
-28 63 -25 6 1 19 -8 29 -19 47 -52 45 -163 45 2180 l0 2200 -5120 0 -5120 0
0 -5120z m4923 4095 c53 -14 73 -24 92 -49 28 -37 24 -81 -9 -98 -11 -6 -23
-14 -26 -17 -33 -40 -194 -76 -309 -68 -103 7 -286 50 -321 76 -31 22 -37 57
-15 81 22 24 127 70 195 86 76 18 305 11 393 -11z m-375 -495 c61 0 87 -4 98
-15 10 -10 35 -15 69 -15 53 0 194 -16 228 -26 21 -6 23 -24 3 -24 -8 0 -17
-9 -20 -20 -3 -11 -9 -29 -12 -40 -4 -16 -1 -20 20 -20 15 0 26 6 26 14 0 9
20 15 68 20 144 13 172 18 172 33 0 9 6 12 18 9 34 -11 127 -34 167 -41 22 -4
46 -12 54 -18 8 -7 55 -15 105 -18 125 -9 338 -45 411 -69 34 -11 79 -22 100
-24 22 -3 53 -9 68 -15 16 -6 32 -9 36 -6 11 6 105 -31 109 -43 2 -6 -6 -24
-17 -39 -14 -18 -19 -36 -15 -51 6 -22 11 -23 93 -22 126 0 171 -6 203 -30 23
-17 28 -18 28 -5 0 14 4 14 36 0 20 -8 56 -15 80 -15 30 0 44 -4 44 -13 0 -8
18 -20 40 -27 22 -7 40 -19 40 -27 0 -9 13 -13 40 -13 33 0 47 -7 80 -40 22
-22 40 -44 40 -50 0 -5 11 -10 24 -10 14 0 28 -4 31 -10 4 -6 -20 -10 -66 -10
-67 0 -71 1 -66 21 4 15 2 18 -7 10 -19 -16 -80 -14 -376 14 -14 1 -36 6 -50
10 -14 5 -56 9 -95 10 -38 1 -99 7 -135 13 -36 7 -101 17 -145 23 -44 6 -94
17 -112 25 -20 9 -66 14 -130 14 -54 0 -116 5 -139 10 -23 5 -56 12 -75 14
-52 7 -228 33 -379 56 -74 11 -182 27 -240 35 -58 8 -130 19 -160 25 -30 6
-86 15 -125 20 -100 14 -205 41 -205 52 0 6 -10 8 -22 5 -36 -8 -331 28 -433
53 -22 5 -61 10 -87 10 -26 0 -50 5 -53 10 -3 6 -21 10 -39 10 -17 0 -36 4
-42 9 -5 6 -45 13 -89 17 -44 3 -93 12 -109 20 -16 8 -48 14 -70 14 -50 1
-117 15 -125 28 -3 5 -52 14 -108 21 -57 7 -103 17 -103 22 0 5 6 9 13 10 6 0
35 2 62 3 113 7 215 19 215 26 0 4 53 11 118 15 64 4 140 9 167 11 228 17 308
21 328 17 13 -3 39 2 58 10 24 10 50 12 86 7 29 -3 58 -3 65 2 9 5 7 8 -7 9
-11 1 0 5 25 8 25 4 58 3 75 -1 16 -5 67 -8 113 -8z m4037 -231 c17 -8 35 -21
42 -29 39 -49 -176 -117 -343 -108 -185 9 -205 92 -34 138 61 16 97 19 190 16
68 -2 127 -9 145 -17z m-6588 -5 c-3 -3 -12 -4 -19 -1 -8 3 -5 6 6 6 11 1 17
-2 13 -5z m163 -14 c3 -4 52 -10 110 -14 105 -6 267 -22 540 -51 341 -38 490
-55 565 -65 44 -6 112 -15 150 -20 172 -21 248 -32 365 -52 69 -11 161 -24
205 -28 44 -5 130 -15 190 -24 218 -31 321 -45 360 -50 43 -5 184 -24 405 -56
74 -10 158 -22 185 -25 28 -3 66 -10 85 -15 31 -8 301 -53 480 -80 36 -5 106
-16 155 -25 50 -9 146 -25 215 -36 238 -38 509 -87 738 -134 96 -19 182 -35
193 -35 10 0 19 -4 19 -9 0 -5 17 -11 38 -15 20 -3 54 -11 75 -17 32 -8 36
-13 26 -25 -9 -11 -7 -14 15 -14 33 0 35 -25 4 -41 -13 -7 -27 -18 -31 -25 -4
-8 -17 -14 -27 -14 -23 0 -85 -58 -85 -79 0 -13 -80 -79 -98 -80 -5 -1 -20
-10 -34 -21 -14 -11 -34 -20 -45 -20 -10 0 -33 -8 -51 -17 -53 -29 -100 -43
-142 -43 -22 0 -52 -6 -66 -14 -30 -15 -112 -30 -149 -27 -20 2 -22 0 -10 -9
12 -8 9 -9 -12 -4 -16 3 -36 3 -45 -1 -10 -4 -40 -7 -68 -6 -56 1 -176 -16
-218 -31 -20 -8 -31 -7 -42 2 -12 10 -19 10 -27 2 -15 -15 -31 -15 -22 -1 4 7
1 10 -7 7 -8 -3 -24 -1 -36 3 -14 5 -25 4 -29 -3 -4 -6 -3 -8 4 -4 5 3 12 3
14 -1 4 -11 147 -113 157 -113 5 0 51 20 103 45 53 25 99 45 104 45 5 0 49
-40 97 -88 l88 -89 -46 -106 -47 -106 55 -78 c29 -43 71 -111 93 -150 l39 -73
60 -1 c33 -1 86 -4 119 -8 l59 -6 33 -110 c19 -60 34 -114 34 -120 0 -5 -37
-41 -81 -79 -68 -60 -79 -73 -75 -95 3 -14 8 -48 11 -74 5 -41 12 -52 36 -65
17 -10 40 -25 51 -34 12 -10 24 -18 27 -18 20 0 113 114 140 170 40 84 45 189
13 261 -25 58 -31 91 -15 96 6 2 19 -6 27 -19 17 -26 36 -164 30 -218 -2 -25
-1 -22 6 10 5 25 14 64 20 88 5 23 10 51 10 62 0 25 29 38 41 19 5 -8 9 -44 9
-80 0 -36 3 -68 6 -72 4 -3 7 -25 8 -48 2 -31 8 -46 24 -57 13 -9 22 -25 22
-40 0 -14 12 -43 26 -63 28 -41 30 -96 4 -110 -27 -14 -55 -22 -68 -20 -6 1
-20 -3 -30 -8 -14 -9 -12 -10 13 -11 39 0 21 -16 -29 -24 -29 -6 -37 -4 -34 6
3 7 -5 17 -16 23 -34 17 -41 56 -23 113 10 28 16 75 15 104 -1 38 -2 43 -5 18
-5 -43 -22 -90 -34 -90 -5 0 -9 -10 -9 -22 0 -11 -18 -45 -40 -75 -43 -57 -69
-66 -102 -36 -17 15 -18 15 -18 0 0 -16 -17 -22 -50 -17 -27 3 -52 37 -54 71
l-2 34 -84 3 -85 3 -17 87 c-53 272 -188 534 -380 737 -163 172 -356 305 -566
389 -104 42 -296 96 -340 96 -23 0 -32 33 -32 119 l0 57 -44 -10 -43 -10 20
-34 c14 -23 20 -53 21 -91 0 -100 -50 -167 -146 -192 -114 -31 -238 67 -238
186 0 24 10 62 25 90 13 27 22 51 20 53 -2 2 -16 -5 -32 -15 -15 -11 -33 -18
-39 -16 -15 5 -24 -29 -24 -89 0 -45 -2 -48 -25 -48 -14 0 -60 -7 -101 -16
-345 -71 -701 -294 -897 -562 -79 -108 -93 -133 -155 -257 -62 -126 -87 -197
-112 -310 l-19 -90 27 32 c17 20 49 40 85 53 41 16 61 29 72 50 19 38 20 37
-13 32 -56 -8 -85 77 -32 96 11 4 39 48 68 107 134 274 348 487 628 628 90 45
288 117 323 117 11 0 23 9 26 20 9 28 51 37 75 15 24 -22 25 -43 3 -67 -19
-21 -56 -24 -72 -4 -10 12 -33 7 -149 -33 -256 -87 -473 -233 -612 -410 l-34
-44 29 19 c17 10 32 21 35 24 28 29 205 59 225 38 10 -10 -27 -109 -42 -115
-7 -3 -13 -11 -13 -19 0 -8 -4 -14 -9 -14 -5 0 -26 -27 -47 -60 -22 -33 -42
-60 -45 -60 -3 0 -25 -18 -50 -40 -24 -22 -47 -40 -50 -40 -4 0 -10 -8 -14
-17 -5 -15 -4 -16 6 -5 34 33 38 4 9 -63 l-20 -48 45 -91 c42 -84 51 -94 106
-128 65 -41 67 -48 32 -125 -20 -42 -19 -139 0 -183 29 -65 105 -119 163 -114
16 1 24 -8 33 -33 15 -42 8 -52 -19 -28 -19 17 -20 17 -26 0 -11 -27 -8 -75 6
-125 8 -25 13 -48 12 -52 -1 -5 3 -8 8 -8 6 0 10 -12 10 -28 0 -72 89 -232
130 -232 5 0 10 -7 10 -15 0 -8 7 -15 15 -15 9 0 36 -20 60 -45 52 -52 66 -60
120 -70 28 -5 48 -17 68 -41 16 -19 33 -34 38 -34 19 0 37 -26 55 -79 15 -41
29 -60 64 -85 25 -18 53 -35 63 -39 9 -3 17 -15 17 -25 0 -11 7 -25 15 -32 8
-7 15 -21 15 -31 0 -9 7 -24 15 -33 17 -16 20 -30 5 -21 -5 3 -18 2 -27 -3
-32 -18 112 -25 240 -12 121 12 252 45 279 71 8 7 13 21 10 31 -6 23 5 63 21
80 7 7 18 26 25 42 l13 29 -23 -17 c-13 -9 -41 -28 -63 -43 l-39 -26 -27 32
c-25 31 -28 32 -79 25 -50 -7 -53 -9 -72 -51 -21 -47 -28 -48 -106 -17 -33 13
-34 15 -27 54 7 39 5 43 -36 79 -39 34 -46 37 -79 30 -42 -10 -45 -7 -70 59
l-20 52 40 20 c39 20 40 22 40 73 0 46 -3 55 -31 78 l-32 26 28 47 c33 57 44
62 84 42 29 -16 33 -15 72 9 39 25 40 27 34 67 -9 50 1 58 73 58 54 0 55 -1
66 -52 5 -20 14 -28 38 -33 28 -7 36 -4 59 25 l27 32 51 -28 c55 -31 59 -40
35 -85 -14 -29 -14 -32 13 -75 23 -36 33 -44 58 -44 46 0 54 -11 61 -79 l7
-63 16 27 c15 25 19 26 61 20 72 -11 106 -7 174 21 36 14 75 24 88 22 21 -3
23 -8 21 -55 -1 -28 -8 -64 -17 -80 -18 -34 -70 -89 -119 -128 -21 -15 -35
-30 -32 -33 9 -9 90 52 164 125 70 69 101 84 101 49 0 -28 28 -5 50 38 25 53
25 55 -5 66 -27 10 -49 54 -40 78 8 21 -4 35 -20 22 -12 -10 -45 -4 -45 9 0 3
12 19 26 34 14 15 23 35 20 43 -8 20 4 75 15 68 20 -12 7 9 -26 42 -35 35 -44
54 -25 54 6 0 10 -7 10 -15 0 -22 28 -6 32 18 2 13 10 21 17 19 12 -3 12 0 2
11 -7 10 -8 16 -2 19 6 1 -1 28 -16 61 -25 55 -27 57 -57 51 -48 -8 -86 26
-86 77 0 21 -4 39 -8 39 -5 0 -17 7 -28 16 -13 11 -14 14 -3 11 12 -4 15 2 12
30 -1 19 5 45 13 58 9 13 14 32 12 42 -4 15 -7 13 -18 -10 -11 -23 -19 -28
-39 -24 -33 7 -61 -9 -61 -33 0 -16 -7 -20 -35 -20 -19 0 -35 5 -35 10 0 6
-11 15 -25 22 -19 8 -28 8 -40 -2 -14 -11 -20 -9 -42 13 -25 24 -26 28 -13 52
12 23 11 28 -13 53 -35 37 -35 67 1 84 19 9 28 22 30 43 6 48 19 57 74 50 33
-5 48 -3 48 5 0 7 14 10 37 8 33 -3 39 -7 43 -32 5 -30 33 -56 46 -43 4 4 -2
20 -14 35 -12 15 -28 42 -37 60 -18 40 -46 76 -63 79 -16 4 -15 -9 1 -26 9
-11 9 -12 0 -7 -9 5 -11 -2 -7 -26 4 -29 3 -31 -8 -14 -69 99 -92 127 -110
137 -19 10 -20 9 -13 -33 4 -23 11 -51 16 -60 11 -20 12 -39 2 -36 -5 0 -15
-1 -23 -4 -8 -4 -36 -12 -63 -18 -55 -15 -55 -15 -72 -87 l-13 -55 44 -40 44
-40 -21 -37 c-11 -20 -35 -52 -52 -72 -36 -40 -50 -39 -107 1 l-28 20 -56 -33
-57 -32 4 -67 4 -68 -61 -1 c-33 0 -69 -2 -79 -4 -9 -2 -14 1 -11 7 3 5 -4 12
-15 15 -15 4 -25 19 -33 49 -9 33 -17 44 -33 45 -11 0 -43 2 -72 5 -51 5 -53
4 -89 -36 -20 -22 -42 -40 -48 -40 -6 0 -26 14 -44 30 -18 17 -35 30 -38 30
-8 0 -54 52 -54 61 0 4 8 14 18 21 31 22 35 62 11 105 -35 63 -38 64 -102 62
-70 -3 -70 -2 -85 108 -11 78 -10 79 60 88 55 8 59 13 77 99 l13 59 -38 33
c-22 18 -42 33 -46 34 -15 0 -8 22 27 81 l34 59 -40 -27 c-30 -20 -39 -32 -35
-46 6 -23 -3 -16 -19 15 -8 18 -19 22 -42 21 -25 -2 -38 5 -62 32 -34 39 -35
43 -22 65 13 19 -53 60 -87 54 -15 -3 -21 -1 -17 6 3 5 -2 10 -11 10 -15 0
-14 3 6 22 13 12 29 23 34 25 6 1 38 9 71 17 76 19 283 21 344 2 68 -20 76
-40 44 -106 -14 -30 -30 -56 -34 -58 -5 -2 -9 -10 -9 -18 0 -8 -8 -14 -17 -14
-15 -1 -14 -4 5 -20 24 -20 24 -20 70 7 73 41 72 40 72 109 0 51 3 64 18 68
37 11 155 26 161 21 3 -4 13 -29 21 -57 13 -43 20 -53 45 -60 17 -5 45 -14 64
-20 37 -11 33 -14 92 60 17 22 19 23 49 7 19 -10 39 -13 53 -9 33 11 47 13 47
6 0 -4 25 -8 55 -9 30 -2 74 -7 97 -13 24 -5 110 -10 191 -10 134 0 150 -2
169 -20 12 -11 43 -23 69 -26 28 -4 55 -14 65 -25 9 -11 28 -19 41 -19 16 0
27 -8 33 -26 8 -20 15 -24 31 -19 13 5 33 -2 57 -18 20 -13 54 -34 75 -47 32
-19 37 -27 37 -58 0 -64 19 -324 24 -330 3 -3 1 -12 -6 -19 -9 -11 -9 -16 2
-23 21 -13 44 8 29 26 -6 8 -8 14 -4 14 4 0 2 7 -5 15 -13 16 -6 65 10 65 6 0
10 14 10 30 0 17 5 30 11 30 7 0 8 -11 4 -31 -6 -25 -3 -34 14 -45 28 -20 27
-32 -4 -46 -32 -14 -32 -33 0 -62 l26 -24 -26 -37 c-21 -32 -25 -34 -25 -16 0
12 -4 19 -10 16 -6 -4 -10 5 -10 20 0 19 -5 25 -17 23 -12 -2 -19 4 -21 20 -2
12 -7 22 -11 22 -5 0 -9 -80 -10 -177 -3 -243 -5 -283 -13 -283 -4 0 -5 -7 -2
-15 4 -11 10 -12 18 -6 8 7 26 -4 59 -34 36 -33 47 -50 47 -73 0 -22 6 -32 20
-37 29 -9 43 -40 30 -65 -6 -11 -16 -17 -22 -14 -7 4 -8 3 -4 -4 4 -7 3 -12
-2 -12 -4 0 -14 -22 -21 -49 -20 -78 -115 -262 -180 -348 -72 -95 -234 -254
-316 -309 -85 -58 -210 -127 -277 -154 -34 -14 -60 -31 -64 -42 -3 -11 -17
-24 -30 -30 -46 -21 -85 49 -51 93 7 9 17 14 24 12 8 -3 11 3 8 16 -6 32 19
25 32 -9 l11 -30 41 15 c79 27 206 100 301 171 226 169 412 419 474 638 17 56
16 59 -2 76 -18 17 -20 16 -58 -9 l-39 -27 -6 -90 c-3 -53 -12 -103 -22 -123
-9 -19 -17 -42 -17 -51 0 -18 -54 -80 -70 -80 -6 0 -10 -4 -10 -9 0 -5 -8 -12
-19 -16 -10 -3 -27 -21 -37 -40 -10 -19 -22 -35 -27 -35 -12 0 -35 -25 -47
-52 -34 -75 -101 -140 -185 -182 -30 -14 -55 -31 -55 -37 0 -6 -5 -9 -12 -7
-6 2 -22 -5 -34 -16 -13 -12 -36 -32 -52 -46 -15 -14 -42 -26 -62 -28 -18 -1
-40 -7 -47 -14 -10 -8 -13 -7 -13 2 0 8 -8 22 -17 33 -17 18 -17 19 2 33 40
28 65 56 58 67 -4 6 0 8 9 4 18 -7 94 53 103 82 3 10 31 31 63 46 38 19 84 57
140 114 88 92 113 134 35 60 -275 -260 -590 -389 -948 -389 -331 0 -660 127
-898 348 -78 72 -65 52 20 -32 40 -39 48 -52 34 -52 -11 0 -19 5 -18 11 1 5
-7 9 -17 7 -29 -5 -87 8 -81 18 3 5 18 7 33 4 l27 -4 -28 16 c-16 8 -25 20
-21 26 5 7 2 8 -5 4 -7 -5 -10 -14 -7 -22 3 -7 1 -16 -4 -19 -9 -6 17 -65 29
-65 9 0 35 -68 36 -95 0 -11 -4 -24 -10 -28 -6 -5 -4 -7 5 -4 8 2 14 9 13 14
-1 5 7 9 17 9 10 0 17 -3 14 -7 -2 -4 12 -14 31 -23 20 -10 33 -22 29 -27 -4
-6 -11 -6 -20 2 -11 9 -14 9 -14 0 0 -7 -5 -9 -12 -5 -6 4 -8 3 -5 -3 7 -11
36 -11 55 1 21 13 27 -3 7 -18 -14 -10 -15 -15 -5 -21 8 -5 11 -4 7 2 -9 14
18 24 41 16 24 -9 88 -65 85 -75 -2 -4 9 -8 25 -9 22 0 24 -2 8 -8 -15 -6 -7
-12 39 -29 44 -17 61 -20 71 -11 22 18 62 2 79 -32 13 -24 19 -28 30 -19 27
23 175 -5 175 -33 0 -5 -11 -18 -25 -29 -14 -11 -23 -23 -20 -28 5 -9 -33 -26
-48 -22 -4 1 -16 -2 -27 -8 -26 -14 -78 -1 -85 20 -12 38 -14 60 -4 60 5 0 9
4 9 9 0 5 -14 4 -31 -2 -28 -11 -33 -10 -52 13 -12 14 -40 31 -62 39 -78 25
-241 112 -328 174 -85 62 -247 211 -247 229 0 4 -13 8 -29 8 -23 0 -31 6 -40
30 -10 31 -29 37 -62 20 -18 -10 -17 -14 20 -68 47 -69 189 -208 291 -284 196
-145 436 -246 685 -285 l50 -8 1 -85 2 -85 -9 74 c-5 41 -10 75 -12 77 -1 1
-47 12 -102 23 -223 46 -452 147 -623 276 -57 42 -106 74 -110 70 -3 -3 0 -10
8 -15 13 -8 13 -10 -1 -10 -9 0 -19 7 -23 15 -3 8 -1 15 4 15 6 0 10 5 10 10
0 7 -6 7 -20 0 -10 -6 -25 -9 -31 -8 -7 2 -17 -6 -23 -18 -7 -12 -19 -20 -30
-18 -16 2 -28 -16 -28 -43 0 -4 -13 -19 -29 -32 -16 -13 -26 -28 -22 -34 4 -6
0 -8 -10 -4 -20 7 -29 -4 -17 -23 14 -23 0 -37 -36 -36 -35 2 -58 21 -47 39 3
5 0 8 -7 5 -7 -2 -25 6 -38 19 -43 40 -31 89 13 57 10 -8 26 -14 34 -14 13 1
12 3 -3 15 -16 12 -17 17 -6 30 7 8 9 15 4 15 -5 0 -4 4 1 8 6 4 16 15 24 25
12 15 12 17 -2 12 -15 -7 -35 30 -23 42 3 4 6 1 6 -5 0 -21 26 -13 27 8 1 11
-4 20 -12 20 -9 0 -12 9 -10 30 3 21 1 28 -7 24 -7 -5 -9 -2 -5 9 4 11 2 14
-8 11 -15 -6 -104 123 -152 221 -29 60 -28 59 -166 71 -43 4 -84 13 -91 20
-12 11 -36 90 -61 195 -5 22 3 35 65 93 l72 67 -4 75 -3 76 95 -3 c58 -2 103
2 115 9 11 6 16 12 11 12 -5 0 3 9 17 20 15 12 36 35 49 53 l23 32 -38 -29
c-72 -55 -189 -46 -246 19 -88 100 -49 244 77 291 26 10 48 18 49 18 1 1 4 13
8 29 l7 27 -82 0 -83 0 7 73 7 72 -77 71 -77 70 28 108 c14 59 24 110 22 113
-3 2 -15 -5 -26 -16 -12 -12 -24 -21 -28 -21 -11 0 -49 -58 -64 -95 -6 -16
-12 -62 -12 -102 -2 -71 -1 -72 48 -134 27 -36 58 -91 71 -127 12 -34 28 -71
35 -80 28 -35 51 -84 42 -91 -5 -3 -15 -22 -23 -41 -8 -19 -18 -38 -24 -42
-22 -15 -1 -142 34 -209 7 -12 6 -28 -4 -51 -9 -18 -25 -61 -38 -96 -14 -38
-44 -89 -76 -128 -62 -75 -72 -99 -72 -164 0 -51 27 -150 42 -150 4 0 8 -6 8
-14 0 -23 48 -54 109 -72 130 -37 133 -38 173 -95 94 -133 108 -194 74 -308
-13 -43 -14 -62 -4 -98 15 -61 91 -142 171 -183 92 -48 100 -62 101 -189 2
-172 -7 -178 -304 -185 -310 -8 -438 -43 -456 -126 -4 -14 -12 -44 -20 -67
-14 -45 -54 -213 -58 -249 -1 -11 -5 -24 -8 -30 -3 -5 -8 -21 -12 -36 -4 -20
-13 -28 -29 -29 -73 -4 -108 -19 -44 -19 20 0 37 -3 37 -7 0 -8 95 -401 106
-441 6 -22 4 -23 -37 -20 -42 3 -43 4 -54 48 l-11 45 -56 3 -56 3 -7 -33 c-13
-67 -14 -68 -56 -68 -21 0 -39 2 -39 5 0 2 25 104 55 226 30 122 55 226 55
230 0 5 -7 9 -15 9 -8 0 -15 -5 -15 -11 0 -7 -15 -10 -40 -7 -37 3 -39 2 -42
-27 -3 -28 -6 -30 -50 -33 l-48 -3 0 -195 0 -195 -42 3 -43 3 -3 193 -2 192
-45 0 c-45 0 -45 0 -45 35 0 33 -9 42 -35 35 -5 -2 -20 -2 -33 -2 -12 1 -25
-4 -28 -11 -3 -8 18 -102 46 -210 27 -107 50 -205 50 -216 0 -18 -6 -21 -39
-21 -42 0 -43 1 -56 67 -6 32 -8 33 -60 33 -57 0 -56 1 -70 -67 -6 -31 -10
-33 -46 -33 -31 0 -39 4 -39 18 1 9 25 114 54 232 l54 215 43 6 44 6 -40 2
c-22 1 -45 5 -52 9 -23 15 -65 712 -45 762 7 18 6 50 -4 105 -7 44 -18 152
-25 240 -12 167 -25 297 -28 280 0 -5 -7 -50 -15 -100 -26 -167 -56 -561 -57
-750 0 -108 -3 -163 -25 -387 -6 -63 -8 -66 -35 -72 -58 -11 -61 -5 -79 164
-5 52 -14 129 -20 170 -5 41 -10 109 -10 151 0 110 -2 111 -201 123 -205 12
-199 16 -199 -133 -1 -150 -22 -330 -40 -342 -9 -5 -62 -7 -130 -3 -135 8
-116 8 -207 -1 -52 -5 -73 -4 -73 4 0 6 10 11 23 12 13 1 4 6 -22 13 -25 6
-46 17 -49 24 -2 7 -8 12 -14 12 -6 0 -26 11 -43 24 -18 14 -73 37 -124 53
l-91 28 0 35 c0 20 -7 46 -16 58 -9 13 -14 24 -13 25 2 2 11 8 20 15 11 8 25
9 52 1 30 -8 37 -15 37 -36 0 -19 4 -24 16 -19 9 3 27 9 40 12 20 5 24 12 24
46 0 35 2 39 20 33 11 -4 20 -2 20 4 0 6 -4 11 -10 11 -5 0 -10 18 -10 40 0
30 4 40 16 40 13 0 15 7 10 38 -9 50 -30 65 -112 81 -38 8 -75 20 -82 28 -7 7
-21 13 -30 13 -9 0 -26 7 -37 16 -18 13 -20 13 -26 -3 -4 -12 -10 -1 -18 35
-15 72 -14 141 3 174 18 33 23 98 11 118 -6 8 -13 53 -17 100 -3 47 -12 130
-18 185 -13 110 -16 816 -5 1105 3 96 8 270 10 385 3 116 9 316 14 445 6 129
10 260 10 290 l1 55 217 -2 c241 -2 437 -8 708 -23 434 -24 436 -24 471 -61
27 -29 29 -34 35 -167 15 -283 29 -509 36 -572 4 -36 6 -75 5 -87 -2 -13 3
-33 10 -45 6 -13 15 -41 19 -63 6 -38 7 -37 9 20 4 102 7 144 18 315 7 91 14
248 18 350 8 228 13 242 95 252 55 7 432 -7 448 -16 5 -3 53 -6 107 -7 55 0
138 -5 185 -10 48 -5 147 -11 220 -15 206 -8 276 -25 296 -72 13 -30 15 -102
4 -102 -4 0 -20 -25 -36 -55 -15 -30 -31 -55 -35 -55 -4 0 -10 -7 -14 -15 -4
-12 4 -15 42 -15 l47 0 35 68 c19 37 60 106 92 154 l57 86 -46 108 -46 108 75
70 c42 39 84 79 95 89 20 17 23 16 118 -28 54 -25 101 -45 106 -45 5 0 46 24
91 54 46 30 113 68 149 86 l66 33 11 120 c6 67 10 122 9 124 -6 6 -65 -45
-128 -111 l-66 -69 -59 6 c-32 3 -138 17 -234 31 -284 41 -323 46 -357 46 -18
0 -52 4 -75 10 -24 5 -101 16 -173 25 -71 9 -161 20 -200 26 -288 40 -367 52
-415 64 -30 8 -111 19 -180 25 -69 6 -141 15 -160 20 -19 5 -92 16 -162 25
-70 8 -137 19 -150 24 -13 4 -54 12 -91 16 -38 4 -83 13 -100 20 -18 7 -57 16
-87 19 -108 11 -169 23 -182 33 -7 6 -65 18 -128 28 -88 12 -122 22 -146 40
-53 40 -116 53 -254 49 -132 -3 -200 7 -200 31 0 21 47 61 120 102 36 20 66
40 68 45 2 4 16 8 30 8 28 1 102 60 102 83 0 6 17 23 38 37 20 14 39 28 42 31
3 4 28 9 55 12 66 7 185 48 185 64 0 7 7 13 15 13 15 0 55 19 65 31 3 3 22 12
43 18 20 7 37 17 37 22 0 5 19 9 41 9 34 0 39 3 30 13 -13 16 -5 28 14 21 7
-3 30 -1 51 5 22 5 95 11 164 12 123 3 166 12 138 31 -8 5 14 6 52 2 36 -4 67
-10 70 -14z m5205 -780 c3 -5 -3 -10 -14 -10 -12 0 -21 5 -21 10 0 6 6 10 14
10 8 0 18 -4 21 -10z m-1721 -525 c5 -12 50 -40 112 -69 56 -26 138 -71 183
-100 83 -53 251 -192 251 -207 0 -5 11 -9 24 -9 25 0 56 -23 56 -41 0 -24 -22
-49 -43 -49 -29 0 -47 18 -47 48 0 53 -227 226 -419 320 -95 46 -117 53 -132
44 -10 -7 -23 -12 -29 -12 -15 0 -50 38 -50 54 0 44 76 61 94 21z m-298 -180
c91 -16 223 -57 261 -81 12 -8 29 -11 37 -8 24 9 56 -14 56 -41 0 -29 -30 -35
-50 -10 -18 22 -164 75 -265 96 -137 29 -326 35 -463 15 -210 -31 -415 -118
-588 -248 -53 -39 -74 -47 -74 -25 0 15 192 144 285 190 113 57 248 100 375
120 69 11 344 6 426 -8z m2319 -281 c18 -14 17 -14 -21 -8 -48 7 -122 -23
-167 -69 -16 -16 -31 -26 -34 -23 -9 9 40 74 78 102 29 22 41 24 79 19 24 -4
53 -13 65 -21z m-3366 -91 c-4 -23 3 -33 24 -34 18 -1 18 -2 4 -6 -18 -5 -57
22 -57 39 0 4 7 8 15 8 8 0 14 -3 14 -7z m3498 -60 c15 -23 18 -49 17 -168 0
-127 -3 -147 -28 -215 -45 -123 -75 -178 -118 -215 -37 -31 -47 -35 -91 -33
-29 2 -51 8 -54 15 -3 7 -10 13 -17 13 -29 1 -121 115 -152 189 -16 38 -18
119 -4 141 8 13 10 12 10 -2 0 -10 4 -18 8 -18 10 0 32 -89 32 -129 0 -37 62
-118 103 -135 29 -12 37 -11 92 17 58 28 122 86 147 131 7 11 22 53 33 91 17
59 20 86 14 164 -4 51 -12 98 -18 104 -14 14 -15 77 -1 77 5 0 18 -12 27 -27z
m-762 -13 c4 -6 -10 -10 -34 -10 -23 0 -41 5 -41 10 0 6 15 10 34 10 19 0 38
-4 41 -10z m1105 -32 c0 -68 23 -188 37 -188 7 0 13 -5 13 -11 0 -5 -4 -8 -9
-5 -11 7 -23 -22 -15 -35 3 -5 10 -7 15 -4 5 4 9 -4 9 -17 0 -13 5 -29 10 -34
6 -6 10 -41 8 -80 l-3 -69 -70 -8 c-38 -4 -123 -17 -188 -28 -77 -14 -122 -18
-128 -12 -6 6 -9 32 -7 59 3 42 7 51 31 62 22 11 27 20 27 51 0 41 19 74 39
69 13 -3 25 12 35 45 8 25 34 21 38 -5 2 -15 11 -24 25 -26 19 -3 22 2 28 65
8 89 9 91 42 95 22 2 28 8 29 28 3 68 34 112 34 48z m-515 -98 c3 -5 1 -10 -4
-10 -6 0 -11 5 -11 10 0 6 2 10 4 10 3 0 8 -4 11 -10z m-104 -73 c-13 -13 -15
21 -3 50 6 15 8 13 10 -11 2 -16 -1 -33 -7 -39z m-3248 -76 c14 -13 41 -27 59
-31 28 -7 29 -8 8 -9 -53 -2 -111 52 -124 114 -5 26 -3 24 13 -10 10 -22 30
-51 44 -64z m3342 65 c36 -16 46 -40 20 -50 -8 -3 -15 -12 -15 -21 0 -19 -5
-19 -41 2 -25 15 -31 16 -39 4 -7 -12 -11 -12 -24 -2 -21 18 -20 50 2 57 9 3
24 9 32 14 21 12 26 12 65 -4z m-35 -90 c0 -11 -19 -15 -25 -6 -3 5 1 10 9 10
9 0 16 -2 16 -4z m-588 -28 c-7 -7 -12 -8 -12 -2 0 14 12 26 19 19 2 -3 -1
-11 -7 -17z m29 -53 c-2 -17 -36 -11 -39 7 -3 14 1 16 18 10 12 -4 21 -12 21
-17z m-1377 -100 c-10 -7 -23 -11 -28 -7 -6 3 -3 8 4 10 8 3 19 12 24 21 7 11
11 12 14 3 2 -7 -4 -19 -14 -27z m-1238 -20 c19 -9 32 -11 38 -5 6 6 19 10 31
10 23 0 50 -35 35 -45 -19 -12 -10 -54 15 -71 30 -20 32 -40 6 -54 -12 -6 -21
-23 -23 -42 -2 -22 -9 -32 -22 -34 -20 -3 -36 -21 -36 -41 0 -20 -40 -26 -59
-9 -23 21 -48 20 -59 -1 -9 -16 -12 -16 -35 0 -16 10 -24 23 -21 34 5 24 -17
50 -46 55 -34 4 -41 53 -11 63 23 7 29 53 10 72 -8 8 -7 17 3 32 10 16 19 20
43 15 23 -4 35 0 49 15 23 25 43 26 82 6z m1202 -13 c6 -18 -15 -14 -22 4 -4
10 -1 14 6 12 6 -2 14 -10 16 -16z m-8 -72 c0 -5 -4 -10 -9 -10 -6 0 -13 5
-16 10 -3 6 1 10 9 10 9 0 16 -4 16 -10z m1167 -41 c60 -22 113 -99 113 -162
0 -19 -10 -54 -23 -78 -18 -33 -30 -44 -50 -46 -33 -2 -34 3 -6 18 17 9 20 8
14 -2 -5 -8 -4 -10 4 -5 6 4 9 11 7 15 -3 4 1 25 9 47 26 76 -12 159 -87 189
-52 20 -96 14 -138 -22 -73 -61 -80 -153 -17 -222 l22 -24 -23 14 c-52 32 -71
149 -34 214 34 59 138 91 209 64z m-43 -89 c29 -11 60 -63 51 -89 -17 -54 -88
-70 -130 -31 -47 44 -22 104 52 129 1 1 13 -3 27 -9z m-2181 -37 c-7 -2 -19
-2 -25 0 -7 3 -2 5 12 5 14 0 19 -2 13 -5z m82 -13 c-4 -6 -9 -8 -13 -6 -4 2
-8 -9 -9 -25 -1 -17 2 -27 7 -24 6 3 7 -1 4 -9 -3 -9 -11 -13 -16 -10 -6 4 -8
-1 -4 -14 4 -12 1 -26 -9 -36 -9 -9 -14 -20 -10 -25 3 -5 1 -12 -5 -16 -5 -3
-10 -14 -10 -23 0 -14 2 -13 13 3 11 14 16 15 22 5 5 -8 4 -11 -2 -7 -6 4 -8
-12 -6 -46 6 -65 46 -133 93 -158 42 -23 129 -25 169 -4 34 17 77 66 87 97 7
23 21 38 37 38 4 0 3 -9 -3 -21 -6 -11 -9 -28 -7 -37 4 -13 5 -12 6 4 0 11 7
21 15 21 13 0 13 -3 0 -21 -18 -27 -18 -75 1 -82 22 -9 18 -28 -12 -55 -14
-13 -23 -18 -19 -11 4 7 1 15 -8 18 -9 3 -14 10 -11 14 3 5 -4 6 -15 3 -12 -3
-22 1 -26 10 -5 13 -10 14 -30 5 -14 -7 -23 -17 -20 -24 6 -14 -25 -29 -33
-16 -3 5 -28 12 -55 16 -27 3 -63 14 -80 24 -31 18 -61 19 -50 1 11 -18 -7 -9
-34 17 -15 15 -21 23 -14 20 6 -4 12 -2 12 3 0 6 -5 11 -10 11 -12 0 -9 32 3
41 4 3 2 23 -6 45 -9 29 -17 38 -32 37 -37 -5 -73 8 -78 27 -7 26 17 44 48 36
18 -4 24 -3 23 6 -2 7 3 12 10 10 8 -1 11 2 8 7 -3 5 3 19 13 32 19 24 14 54
-13 71 -6 4 1 17 19 32 30 26 62 36 50 16z m15 -14 c0 -3 -4 -8 -10 -11 -5 -3
-10 -1 -10 4 0 6 5 11 10 11 6 0 10 -2 10 -4z m-160 -75 c0 -5 -6 -14 -14 -20
-16 -13 -32 2 -21 19 8 12 35 13 35 1z m1128 -19 c-2 -15 -7 -26 -13 -24 -5 2
-9 10 -7 18 2 9 -6 14 -23 14 -36 0 -24 15 15 17 29 2 31 0 28 -25z m1582 3
c29 -35 -5 -48 -150 -60 -14 -1 -59 -6 -101 -10 -76 -7 -103 1 -76 23 14 12
98 29 187 38 36 4 74 10 85 15 30 12 41 11 55 -6z m-1335 -5 c4 -6 -9 -10 -32
-9 -38 1 -38 1 -8 9 17 4 31 8 32 9 1 0 5 -3 8 -9z m1779 -20 c14 -5 26 -16
26 -25 0 -8 5 -15 10 -15 6 0 10 7 10 16 0 12 7 14 33 9 35 -8 61 -25 36 -25
-8 0 -23 -16 -32 -35 -22 -45 -22 -45 8 -45 22 0 25 -4 25 -37 0 -45 8 -59 35
-65 15 -3 20 -11 18 -31 -1 -15 2 -27 6 -27 5 0 6 -11 4 -23 -4 -19 3 -28 31
-45 35 -21 42 -36 37 -88 -1 -12 5 -27 13 -34 19 -15 23 0 33 125 7 81 10 90
28 90 19 0 20 -9 27 -139 4 -76 9 -140 11 -143 3 -2 8 17 12 44 4 26 14 52 22
58 10 8 18 45 26 123 10 105 12 112 33 112 31 0 34 -31 34 -345 0 -198 -3
-274 -12 -283 -7 -7 -43 -12 -92 -12 -104 0 -209 -17 -219 -36 -4 -8 -15 -14
-22 -14 -8 0 -15 -4 -15 -10 0 -5 -12 -10 -27 -11 -22 0 -24 -2 -10 -8 17 -6
16 -9 -9 -36 -26 -29 -27 -29 -35 -8 -4 11 -13 24 -20 29 -9 5 -8 9 6 14 16 5
-27 8 -186 13 -24 1 -41 8 -48 19 -18 29 -15 711 3 745 l14 27 7 -32 c7 -33
18 -41 30 -21 4 6 13 8 20 5 14 -5 75 29 75 42 0 4 -6 14 -12 21 -11 11 -2 12
50 7 56 -6 62 -5 62 12 0 16 -8 18 -52 17 -29 0 -58 -3 -63 -7 -6 -4 -39 -8
-74 -9 -66 -3 -87 10 -79 48 5 29 169 54 222 33z m-3204 -41 c0 -10 -4 -19
-10 -19 -5 0 -11 -8 -11 -17 -1 -10 -5 -4 -8 12 -8 31 4 59 20 49 5 -3 9 -14
9 -25z m2360 11 c11 -7 6 -10 -20 -10 -26 0 -31 3 -20 10 8 5 17 10 20 10 3 0
12 -5 20 -10z m2678 -72 c-3 -8 -28 -14 -66 -16 -70 -3 -87 15 -19 21 85 7 89
7 85 -5z m-4478 -8 c0 -5 -4 -10 -10 -10 -5 0 -10 5 -10 10 0 6 5 10 10 10 6
0 10 -4 10 -10z m-640 -33 c0 -13 9 -49 20 -81 10 -31 15 -54 10 -51 -9 5 -50
126 -50 146 0 5 5 9 10 9 6 0 10 -11 10 -23z m2500 -51 c0 -71 1 -75 31 -100
17 -14 36 -23 41 -20 7 5 8 2 3 -7 -7 -12 -6 -12 7 -1 25 20 113 27 131 11 25
-24 -5 -41 -68 -37 l-54 3 30 -31 31 -32 -16 -48 c-13 -42 -14 -18 0 27 3 11
-21 40 -75 89 l-80 72 6 68 6 69 -84 4 -84 3 88 2 87 2 0 -74z m396 0 c12 -13
12 -17 -2 -30 -8 -9 -21 -17 -27 -17 -7 -1 -16 -2 -22 -3 -5 -1 -52 -5 -103
-10 -50 -4 -94 -12 -97 -16 -9 -15 -75 10 -75 29 0 3 9 12 21 19 20 13 48 17
168 27 29 2 56 6 59 9 11 12 64 6 78 -8z m541 -2 c-3 -3 -12 -4 -19 -1 -8 3
-5 6 6 6 11 1 17 -2 13 -5z m-2212 -14 c3 -5 1 -10 -4 -10 -6 0 -11 5 -11 10
0 6 2 10 4 10 3 0 8 -4 11 -10z m3215 -11 c-64 -11 -92 -11 -85 1 3 6 34 9 68
9 l62 -2 -45 -8z m-3703 -30 c-13 -34 -83 -111 -119 -130 -13 -6 4 17 38 52
33 35 66 74 73 87 17 32 21 27 8 -9z m646 -29 c2 0 4 12 3 28 -1 25 1 27 34
23 56 -5 70 -17 68 -57 -1 -26 -7 -38 -22 -44 -22 -8 -22 -8 24 -23 8 -3 4 -6
-10 -6 -53 -2 -130 73 -130 124 1 14 5 11 15 -12 8 -18 16 -33 18 -33z m2864
43 c-3 -2 -35 -7 -71 -10 -36 -3 -71 -6 -78 -7 -7 0 -14 4 -16 9 -1 6 31 12
75 15 76 5 99 3 90 -7z m63 7 c0 -5 -7 -10 -15 -10 -8 0 -15 5 -15 10 0 6 7
10 15 10 8 0 15 -4 15 -10z m-1760 -10 c0 -5 -4 -10 -10 -10 -5 0 -10 5 -10
10 0 6 5 10 10 10 6 0 10 -4 10 -10z m-1370 -21 c0 -5 -7 -9 -15 -9 -8 0 -15
7 -15 15 0 9 6 12 15 9 8 -4 15 -10 15 -15z m3110 -35 c0 -2 -24 -4 -52 -4
-29 0 -48 4 -41 8 12 7 93 4 93 -4z m-3925 -44 c3 -6 -1 -7 -9 -4 -18 7 -21
14 -7 14 6 0 13 -4 16 -10z m3795 -20 c0 -5 -4 -10 -10 -10 -5 0 -10 5 -10 10
0 6 5 10 10 10 6 0 10 -4 10 -10z m50 0 c0 -5 -7 -7 -15 -4 -8 4 -15 8 -15 10
0 2 7 4 15 4 8 0 15 -4 15 -10z m-3835 -20 c-3 -5 -12 -10 -18 -10 -7 0 -6 4
3 10 19 12 23 12 15 0z m75 -16 c0 -8 -4 -12 -10 -9 -5 3 -10 10 -10 16 0 5 5
9 10 9 6 0 10 -7 10 -16z m3730 -30 c0 -2 -9 -4 -21 -4 -11 0 -18 4 -14 10 5
8 35 3 35 -6z m-3905 -92 c-3 -3 -11 0 -18 7 -9 10 -8 11 6 5 10 -3 15 -9 12
-12z m279 3 c5 -13 2 -14 -15 -4 -12 6 -37 8 -61 4 -29 -5 -39 -4 -34 4 11 17
103 14 110 -4z m2063 -17 c-3 -8 -6 -5 -6 6 -1 11 2 17 5 13 3 -3 4 -12 1 -19z
m-2196 -27 c24 -5 34 -9 21 -10 -13 -1 -44 4 -70 11 -36 9 -42 13 -26 18 10 4
22 3 25 -2 3 -4 25 -12 50 -17z m109 9 c13 -9 13 -10 0 -10 -12 0 -12 -2 -2
-9 11 -7 11 -9 -2 -14 -10 -4 -20 1 -25 12 -15 28 1 39 29 21z m2423 -1 c20
-5 37 -13 37 -17 0 -14 -24 -32 -42 -32 -10 0 -18 -4 -18 -10 0 -11 -272 -15
-283 -4 -3 4 -2 15 4 26 6 11 13 18 15 15 3 -3 32 1 64 9 33 7 82 13 110 13
28 -1 54 1 57 5 8 8 11 8 56 -5z m1204 5 c-3 -3 -12 -4 -19 -1 -8 3 -5 6 6 6
11 1 17 -2 13 -5z m-1550 -26 c-3 -8 -6 -5 -6 6 -1 11 2 17 5 13 3 -3 4 -12 1
-19z m-10 -40 c-3 -8 -6 -5 -6 6 -1 11 2 17 5 13 3 -3 4 -12 1 -19z m2393 -63
c17 -21 16 -64 -3 -83 -13 -13 -21 -13 -42 -4 -19 9 -25 19 -25 45 0 52 41 77
70 42z m115 -25 c9 -27 -1 -40 -31 -40 -18 0 -24 5 -24 23 0 13 3 27 7 30 13
14 42 6 48 -13z m-2205 -5 c17 -20 5 -32 -40 -41 -39 -8 -42 -8 -120 -5 -30 1
-72 -1 -92 -5 -25 -4 -43 -2 -53 6 -24 20 0 40 49 41 22 0 49 4 59 8 10 4 56
8 101 9 65 2 86 -1 96 -13z m-280 -105 c24 -16 -6 -30 -63 -30 -53 0 -55 14
-4 29 43 12 49 12 67 1z m254 -56 c24 -9 20 -49 -6 -62 -32 -15 -353 -11 -369
5 -20 20 22 29 191 42 85 7 156 14 159 17 6 5 6 5 25 -2z m-548 -79 c-4 -14
-2 -34 4 -45 14 -26 -10 -38 -43 -22 -15 7 -17 11 -7 11 10 1 17 12 18 32 3
37 9 49 24 49 6 0 8 -10 4 -25z m379 -50 c0 -19 -6 -20 -119 -18 -66 1 -124 7
-130 13 -7 7 4 10 35 11 24 1 55 5 69 9 14 5 52 8 85 7 53 -2 60 -4 60 -22z
m-501 -72 c20 -47 35 -88 33 -89 -2 -2 -22 37 -44 86 -23 50 -38 90 -34 90 5
0 25 -39 45 -87z m1266 -167 l45 -13 -65 -9 c-70 -10 -753 -8 -833 2 -27 3
-45 9 -42 13 10 10 176 16 525 18 252 2 335 0 370 -11z m-3970 -16 c-12 -8
-11 -10 8 -10 12 0 22 -5 22 -11 0 -6 -9 -8 -20 -4 -11 3 -20 2 -20 -3 0 -5
15 -14 33 -19 l32 -10 -27 -8 c-16 -4 -28 -11 -28 -17 0 -5 -4 -6 -10 -3 -16
10 -12 25 8 25 14 0 15 2 2 10 -9 6 -17 5 -22 -3 -4 -6 -11 -8 -15 -3 -4 5 -2
11 5 13 6 3 12 13 12 22 0 20 9 31 24 31 6 0 4 -5 -4 -10z m83 -4 c4 -10 1
-13 -9 -9 -7 3 -14 9 -14 14 0 14 17 10 23 -5z m1284 -59 c31 -21 73 -83 73
-107 0 -7 -10 7 -23 31 -33 62 -76 89 -146 90 -42 0 -51 3 -36 9 29 14 95 2
132 -23z m-1417 3 c13 -11 20 -23 16 -27 -3 -4 -19 5 -34 20 -31 31 -16 37 18
7z m1384 -112 c9 -12 16 -29 16 -38 -1 -8 -8 -1 -17 15 -8 17 -25 38 -37 48
l-21 18 22 -10 c12 -6 29 -21 37 -33z m-1129 -43 c28 -17 68 -43 90 -57 50
-31 60 -52 79 -157 19 -101 50 -147 117 -173 93 -36 201 -17 309 53 75 49 170
67 266 50 109 -20 153 -38 195 -80 43 -43 47 -63 30 -162 -5 -30 -13 -89 -16
-131 -5 -58 -10 -78 -21 -78 -8 0 -14 -6 -14 -13 0 -21 -51 -61 -95 -74 -22
-7 -94 -19 -160 -28 -66 -8 -142 -19 -170 -24 -44 -9 -398 -28 -417 -23 -5 1
-8 -3 -8 -8 0 -7 -15 -8 -42 -4 -24 4 -53 8 -66 9 -43 3 -54 36 -43 121 17
117 37 139 131 147 66 6 169 35 187 52 23 24 25 59 4 84 -19 21 -27 23 -131
22 -62 -1 -115 -3 -119 -5 -3 -3 -28 15 -54 39 -31 27 -64 47 -95 55 -162 41
-175 62 -163 275 4 69 33 121 78 141 36 15 67 8 128 -31z m2075 -74 c29 -19
53 -18 130 4 30 8 90 15 134 15 66 0 88 -4 132 -27 31 -15 50 -31 45 -36 -5
-5 -57 -13 -117 -19 -60 -5 -118 -11 -129 -13 -11 -2 -26 -4 -33 -4 -9 -1 -11
-29 -8 -121 2 -93 0 -122 -10 -131 -8 -6 -14 -22 -14 -36 0 -19 -4 -24 -21
-21 -12 2 -27 12 -33 23 -5 11 -18 32 -28 47 -10 15 -18 41 -18 57 0 17 -5 42
-12 56 -16 35 -28 14 -28 -47 0 -43 -4 -50 -40 -79 -31 -25 -37 -35 -29 -45
14 -17 5 -20 -66 -28 -27 -3 -72 -10 -100 -16 -62 -14 -200 -4 -216 16 -14 17
1 33 72 74 100 59 148 95 149 112 0 9 8 22 18 27 13 8 14 10 2 11 -13 0 -13 1
0 10 13 8 13 10 1 10 -12 0 -12 3 -3 12 7 7 12 18 12 26 0 7 7 21 16 29 11 11
14 26 9 49 -7 38 12 53 80 65 46 7 70 3 105 -20z m-1095 -44 c20 -18 20 -18
-1 -8 -12 6 -29 23 -39 38 -17 27 -17 28 1 8 11 -11 28 -28 39 -38z m2710 -8
c17 -4 -27 -7 -102 -8 -87 -1 -133 3 -133 9 0 12 184 11 235 -1z m-1858 -61
c-3 -7 -5 -2 -5 12 0 14 2 19 5 13 2 -7 2 -19 0 -25z m602 -253 c13 -17 34
-28 63 -33 37 -7 45 -13 61 -46 27 -57 49 -183 37 -207 -23 -42 -80 -5 -80 51
0 31 -28 117 -47 145 -17 26 -17 33 5 38 14 4 14 5 1 6 -9 0 -28 -9 -42 -21
-14 -13 -37 -31 -51 -41 -61 -42 -80 -183 -38 -269 13 -25 34 -53 47 -62 35
-23 86 1 116 54 14 24 30 40 41 40 21 0 22 -4 8 -31 -6 -10 -17 -19 -25 -19
-8 0 -21 -16 -29 -35 -14 -32 -19 -35 -58 -37 -37 -1 -35 -2 17 -7 l60 -6 0
-35 c0 -35 0 -35 -47 -38 l-48 -3 0 -195 0 -194 -40 0 -40 0 0 195 0 195 -45
0 -45 0 0 40 c0 40 0 40 40 40 l39 0 -23 25 c-39 42 -60 140 -53 244 8 109 28
162 75 201 45 37 74 38 101 5z m-5799 -64 c0 -5 -13 -14 -30 -20 -27 -9 -30
-8 -30 10 0 14 7 19 30 19 17 0 30 -4 30 -9z m5105 -190 c3 -20 8 -44 10 -55
10 -49 -46 -91 -59 -43 -7 28 -8 111 0 130 10 28 43 7 49 -32z m-218 -51 c1
-11 -4 -20 -13 -20 -17 0 -18 12 -2 28 7 7 12 12 13 12 0 0 1 -9 2 -20z m100
-12 c-3 -8 -6 -5 -6 6 -1 11 2 17 5 13 3 -3 4 -12 1 -19z m227 -3 c8 -33 -2
-95 -20 -120 -13 -17 -16 -18 -24 -5 -16 26 -23 100 -11 126 14 32 47 32 55
-1z m-4898 -50 c-5 -19 -2 -25 9 -25 9 0 28 -11 43 -25 15 -14 35 -25 44 -25
10 0 21 -8 26 -17 15 -28 23 -116 13 -132 -7 -10 -50 -18 -146 -27 -146 -14
-171 -10 -209 31 -18 20 -46 76 -46 93 0 14 36 52 49 52 6 0 11 4 11 8 0 10
94 34 138 36 17 1 28 4 26 7 -2 4 5 9 16 12 11 3 20 12 20 21 0 9 3 16 6 16 3
0 3 -11 0 -25z m5979 -119 c51 -33 60 -69 59 -221 -1 -152 -9 -183 -55 -218
-38 -28 -108 -33 -152 -12 -61 29 -77 77 -77 228 0 134 9 176 48 210 43 39
128 45 177 13z m-4958 -10 c51 -26 63 -67 63 -213 0 -102 -4 -135 -18 -163
-26 -53 -70 -71 -170 -68 l-83 3 -5 227 c-3 209 -2 227 14 232 33 10 169 -2
199 -18z m1401 10 c31 -16 51 -48 54 -86 3 -22 -1 -25 -34 -28 -25 -2 -38 1
-38 9 0 39 -65 64 -89 35 -26 -31 -9 -69 44 -101 27 -16 66 -46 87 -66 35 -34
38 -41 38 -92 0 -45 -5 -61 -26 -86 -31 -37 -88 -56 -140 -47 -51 10 -104 63
-104 105 0 29 2 31 39 31 33 0 40 -4 43 -22 2 -12 15 -29 29 -37 24 -13 29
-13 53 2 18 12 26 26 26 45 0 33 -23 57 -93 97 -69 39 -87 67 -87 132 0 49 4
59 34 89 30 30 40 34 85 34 29 0 64 -6 79 -14z m226 -3 c29 -106 70 -233 75
-233 4 0 22 51 40 113 19 61 39 118 44 125 5 6 29 12 53 12 l44 0 0 -235 0
-235 -40 0 -41 0 3 155 c2 85 0 151 -3 147 -4 -4 -19 -47 -34 -97 -31 -105
-39 -117 -74 -113 -23 3 -29 14 -62 118 l-37 115 -1 -163 -1 -163 -37 3 -38 3
0 225 c0 124 1 228 3 233 2 4 25 7 52 7 38 0 50 -4 54 -17z m511 -5 c3 -13 28
-113 55 -223 28 -110 50 -206 50 -213 0 -9 -13 -12 -42 -10 -43 3 -43 3 -52
51 l-8 48 -56 -3 -56 -3 -11 -45 c-11 -44 -12 -45 -54 -48 -33 -2 -42 0 -39
10 3 7 29 108 57 223 29 116 54 216 57 223 2 7 21 12 48 12 39 0 46 -3 51 -22z
m338 8 c45 -19 69 -50 77 -99 9 -59 -4 -108 -36 -135 l-27 -23 37 -92 c20 -51
36 -96 36 -100 0 -4 -20 -7 -44 -7 l-44 0 -27 83 c-30 90 -45 113 -69 104 -13
-5 -16 -24 -16 -97 l0 -90 -40 0 -40 0 0 235 0 235 80 0 c46 0 95 -6 113 -14z
m377 -26 l0 -40 -48 0 -47 0 0 -192 0 -193 -42 -3 -43 -3 0 195 0 196 -45 0
-45 0 0 40 0 40 135 0 135 0 0 -40z m391 24 c17 -8 37 -30 45 -49 23 -55 19
-65 -24 -65 -33 0 -39 4 -49 30 -9 24 -17 30 -40 30 -37 0 -53 -16 -53 -52 0
-24 11 -35 68 -72 102 -66 129 -107 117 -178 -23 -135 -238 -143 -272 -10 -7
28 9 42 48 42 20 0 28 -6 33 -25 13 -51 96 -53 110 -3 8 32 -20 66 -87 105
-77 46 -97 74 -97 138 0 56 24 99 64 115 34 14 105 11 137 -6z m329 0 c56 -33
65 -65 65 -219 0 -123 -3 -144 -20 -175 -29 -49 -78 -72 -137 -66 -107 11
-132 61 -127 259 4 147 14 176 70 204 34 18 116 16 149 -3z m200 -179 l0 -195
80 0 80 0 0 -40 0 -40 -120 0 -120 0 0 229 c0 246 -2 239 53 240 l27 1 0 -195z
m280 12 c0 -200 5 -219 53 -219 55 0 57 8 57 208 l0 184 40 0 40 0 0 -191 c0
-238 -10 -261 -113 -275 -56 -8 -111 15 -137 58 -18 30 -20 50 -20 226 l0 192
40 0 40 0 0 -183z m1160 41 c30 -76 58 -138 63 -138 4 0 5 61 2 136 l-6 135
41 -3 c22 -2 40 -6 40 -10 0 -5 0 -107 0 -229 l0 -220 -41 3 -41 3 -56 140
-57 140 -3 -143 -3 -142 -39 0 -40 0 0 228 c0 126 3 232 7 236 4 4 23 6 43 4
l35 -3 55 -137z m400 127 c31 -16 60 -61 60 -93 0 -15 -8 -21 -36 -24 -32 -4
-37 -1 -46 23 -17 48 -82 51 -94 4 -9 -35 8 -56 78 -95 75 -43 108 -87 108
-144 0 -85 -69 -143 -157 -133 -56 6 -91 30 -109 74 -20 47 -12 63 29 63 29 0
37 -5 47 -29 13 -33 41 -44 75 -31 59 22 36 86 -46 129 -84 45 -109 79 -109
148 0 49 4 59 34 89 30 30 40 34 85 34 29 0 65 -7 81 -15z m-940 -225 l0 -230
-40 0 -40 0 0 230 0 230 40 0 40 0 0 -230z m1355 104 c21 -69 41 -119 45 -112
4 7 22 64 40 126 l34 112 53 0 53 0 0 -230 0 -230 -40 0 -40 0 -1 163 0 162
-36 -112 c-36 -112 -36 -113 -68 -113 -31 0 -32 1 -68 113 l-36 112 -1 -162 0
-163 -40 0 -40 0 0 230 0 230 53 0 53 0 39 -126z m385 54 c14 -37 27 -68 30
-68 3 0 18 32 33 70 29 70 29 70 68 70 21 0 39 -4 39 -9 0 -4 -20 -55 -45
-112 l-46 -104 47 -102 c41 -90 49 -101 65 -93 10 6 39 10 64 10 39 0 46 -3
43 -17 -4 -19 -30 -22 -85 -9 -27 6 -33 5 -33 -9 0 -13 -9 -16 -42 -13 l-43 3
-30 72 c-16 40 -33 73 -36 73 -3 0 -18 -33 -35 -72 l-29 -73 -43 -3 c-23 -2
-42 0 -42 4 0 4 23 57 51 119 57 127 59 98 -15 258 l-36 78 47 -3 48 -3 25
-67z m-7258 -278 c4 -19 10 -73 14 -119 l7 -84 -54 6 c-30 3 -79 11 -109 17
-30 7 -73 16 -95 20 -149 28 -294 64 -313 76 -51 33 -14 47 161 62 76 6 114
14 134 28 43 29 61 32 158 31 l89 -2 8 -35z m7846 -92 c36 -7 61 -16 59 -22
-5 -15 -57 -18 -147 -9 -69 7 -75 10 -78 32 -4 23 -3 24 50 17 29 -4 81 -12
116 -18z m-5160 -128 c-15 -24 -38 -34 -38 -17 0 17 20 37 37 37 11 0 11 -4 1
-20z m312 13 c0 -10 -32 -43 -42 -43 -12 0 -10 24 4 38 13 13 38 16 38 5z
m920 -1 c0 -13 -39 -46 -46 -39 -9 9 16 47 31 47 8 0 15 -4 15 -8z m250 -11
c-12 -23 -29 -35 -36 -28 -10 9 16 47 32 47 11 0 12 -4 4 -19z m-2427 -56 c-1
-5 -14 -11 -28 -13 l-25 -3 0 -110 c0 -60 -4 -109 -9 -109 -16 0 -21 30 -21
126 0 94 0 94 -25 94 -25 0 -32 10 -18 24 11 11 128 2 126 -9z m147 0 c0 -11
-12 -15 -45 -15 l-45 0 0 -40 0 -40 40 0 c29 0 40 -4 40 -15 0 -11 -11 -15
-40 -15 l-40 0 0 -40 0 -40 45 0 c33 0 45 -4 45 -15 0 -12 -13 -15 -60 -15
l-60 0 0 118 c0 65 3 122 7 125 3 4 30 7 60 7 40 0 53 -4 53 -15z m149 -11
c12 -15 21 -33 21 -40 0 -23 -26 -16 -38 11 -12 27 -40 33 -60 13 -7 -7 -12
-43 -12 -90 0 -68 2 -79 21 -88 16 -9 25 -8 40 6 10 9 19 23 19 31 0 7 7 13
16 13 13 0 15 -6 10 -27 -9 -36 -32 -53 -70 -53 -54 0 -66 22 -66 122 0 75 3
91 20 108 29 29 74 26 99 -6z m120 -65 l36 -84 5 84 c3 55 9 86 18 89 9 3 12
-26 12 -123 0 -155 -13 -162 -68 -37 l-37 83 -3 -86 c-2 -67 -6 -85 -17 -85
-12 0 -15 21 -15 118 0 165 14 173 69 41z m232 72 c21 -17 24 -27 24 -104 0
-98 -16 -127 -69 -127 -58 0 -76 31 -76 128 0 55 4 75 21 96 25 31 66 34 100
7z m89 -91 l0 -110 28 -1 c49 -2 55 -4 60 -17 3 -10 -10 -12 -54 -10 l-59 3
-3 109 c-3 113 0 136 18 136 6 0 10 -41 10 -110z m225 85 c22 -21 25 -33 25
-94 0 -38 -4 -81 -9 -94 -18 -47 -97 -53 -120 -8 -6 11 -11 56 -11 100 0 68 3
84 20 101 27 27 66 25 95 -5z m173 8 c24 -21 32 -54 15 -60 -7 -3 -18 7 -24
21 -16 35 -56 35 -69 0 -17 -43 -12 -129 8 -154 15 -19 22 -21 39 -12 12 7 23
25 25 42 4 26 1 30 -19 30 -14 0 -23 6 -23 16 0 12 9 14 38 12 l37 -3 -3 -60
c-4 -59 -11 -81 -19 -58 -3 9 -11 8 -29 -4 -21 -13 -29 -14 -49 -3 -35 19 -48
60 -43 141 3 60 8 74 27 90 29 24 63 24 89 2z m96 -101 c-2 -117 -7 -147 -24
-137 -11 7 -14 238 -3 249 21 21 28 -8 27 -112z m140 70 c3 -15 16 -66 29
-114 23 -81 23 -88 7 -88 -11 0 -20 10 -23 30 -6 27 -11 30 -42 30 -31 0 -36
-3 -41 -30 -4 -19 -13 -30 -23 -30 -16 0 -14 12 13 118 16 64 34 120 40 124
15 10 33 -8 40 -40z m460 -59 c15 -60 29 -116 32 -125 4 -12 0 -18 -11 -18 -9
0 -18 12 -21 30 -6 27 -10 30 -44 30 -34 0 -39 -3 -45 -30 -4 -17 -13 -30 -22
-30 -10 0 -13 6 -8 17 3 10 18 66 31 125 21 88 29 108 44 108 14 0 23 -21 44
-107z m126 25 l39 -83 3 80 c2 63 6 80 18 80 12 0 15 -20 15 -120 0 -106 -2
-120 -17 -123 -12 -2 -22 8 -33 35 -8 21 -26 60 -38 88 l-23 50 4 -88 c4 -75
2 -87 -12 -87 -9 0 -16 1 -16 3 -1 1 -3 50 -7 109 -9 167 8 181 67 56z m221
-24 c42 -150 41 -144 25 -144 -8 0 -19 14 -25 30 -8 26 -15 30 -45 30 -32 0
-36 -3 -36 -25 0 -22 -24 -45 -35 -33 -5 4 49 220 59 237 16 25 31 1 57 -95z
m97 -7 l3 -107 39 0 c29 0 40 -4 40 -15 0 -12 -13 -15 -57 -15 l-58 0 2 112
c2 62 3 119 3 126 0 8 6 12 13 10 8 -3 13 -37 15 -111z m140 -15 c2 -104 0
-122 -13 -122 -13 0 -15 20 -15 126 0 96 3 125 13 122 8 -3 13 -40 15 -126z
m153 107 c21 -21 22 -40 2 -46 -6 -2 -14 5 -18 16 -4 14 -15 21 -30 21 -52 0
-44 -56 14 -88 56 -32 69 -84 31 -122 -26 -26 -60 -25 -94 1 -29 22 -35 49
-11 49 8 0 15 -5 15 -10 0 -16 43 -29 63 -18 26 13 21 45 -10 65 -52 32 -73
56 -73 85 0 59 69 89 111 47z m89 -109 c0 -114 -10 -153 -30 -119 -14 21 -12
232 2 240 24 15 28 -4 28 -121z m138 114 c25 -17 30 -54 8 -54 -8 0 -18 9 -21
20 -7 23 -37 26 -55 5 -18 -21 -4 -49 35 -68 70 -33 82 -102 23 -133 -41 -21
-98 3 -98 42 0 21 19 17 39 -7 25 -31 61 -18 61 21 0 24 -7 33 -40 50 -61 31
-78 82 -40 120 24 24 57 26 88 4z m360 -31 c6 -27 14 -70 18 -98 l7 -50 18 89
c19 96 22 101 42 93 9 -3 19 -36 27 -86 8 -44 16 -78 19 -75 3 3 13 42 21 87
9 51 20 82 28 82 6 0 13 -2 14 -5 1 -3 -9 -58 -22 -122 -18 -96 -26 -118 -40
-118 -13 0 -20 15 -29 68 -21 110 -26 115 -40 37 -18 -99 -21 -107 -38 -103
-12 2 -22 33 -39 118 -28 140 -27 130 -10 130 9 0 18 -18 24 -47z m342 32 c0
-11 -12 -15 -45 -15 l-45 0 0 -39 c0 -39 1 -40 37 -43 52 -4 56 -28 4 -28
l-41 0 0 -40 0 -40 45 0 c33 0 45 -4 45 -15 0 -12 -13 -15 -60 -15 l-60 0 0
125 0 125 60 0 c47 0 60 -3 60 -15z m145 -5 c18 -15 20 -71 3 -88 -8 -8 -8
-15 -1 -24 22 -28 23 -65 2 -92 -17 -22 -28 -26 -70 -26 l-49 0 0 118 c0 65 3
122 8 126 10 11 89 1 107 -14z m428 9 c12 -7 25 -17 29 -23 14 -20 8 -63 -11
-87 -18 -23 -18 -24 0 -67 23 -52 23 -62 5 -62 -7 0 -22 24 -33 53 -11 29 -27
53 -37 55 -13 3 -16 -6 -16 -52 0 -42 -4 -56 -14 -56 -12 0 -15 23 -18 115 -2
64 -1 120 0 125 5 14 68 13 95 -1z m187 -4 c0 -11 -11 -15 -40 -15 -40 0 -40
0 -40 -39 0 -39 1 -40 38 -43 20 -2 37 -7 37 -13 0 -5 -17 -11 -37 -13 -37 -3
-38 -4 -38 -42 0 -38 1 -39 40 -42 64 -5 52 -23 -17 -26 l-63 -3 0 119 c0 65
3 122 7 125 3 4 30 7 60 7 40 0 53 -4 53 -15z m102 -76 l38 -84 0 83 c0 64 3
82 14 82 12 0 15 -22 18 -104 2 -57 1 -111 0 -120 -8 -37 -35 -7 -70 74 l-37
85 -3 -88 c-2 -64 -6 -87 -15 -84 -12 4 -23 207 -12 235 10 27 31 4 67 -79z
m238 70 c0 -5 -13 -9 -30 -9 l-30 0 0 -110 c0 -91 -3 -110 -15 -110 -12 0 -15
19 -15 110 l0 110 -25 0 c-14 0 -25 4 -25 10 0 5 28 10 63 12 67 3 77 2 77
-13z m100 -31 c7 -24 20 -74 31 -113 23 -83 23 -85 5 -85 -8 0 -17 14 -21 30
-6 26 -11 30 -41 30 -30 0 -37 -4 -45 -30 -6 -16 -18 -30 -26 -30 -9 0 -13 6
-9 15 3 9 18 63 33 120 21 84 30 105 45 105 12 0 21 -13 28 -42z m-3100 -57
c5 -11 7 -26 4 -35 -8 -21 -42 -30 -59 -16 -15 13 -20 51 -8 63 13 14 53 6 63
-12z m1405 -15 c0 -36 -27 -56 -52 -40 -40 25 -20 77 26 72 21 -2 26 -8 26
-32z m845 14 c15 -28 -4 -60 -35 -60 -14 0 -29 8 -35 20 -15 28 4 60 35 60 14
0 29 -8 35 -20z m-1889 -181 c4 -7 22 -7 58 -1 28 5 51 7 51 3 0 -3 39 -7 88
-8 213 -6 250 -9 244 -17 -3 -5 1 -5 9 0 20 12 34 14 114 15 60 0 72 -3 87
-21 10 -12 18 -28 18 -36 0 -7 11 -21 25 -30 17 -11 25 -25 25 -45 0 -40 32
-65 103 -78 34 -7 81 -16 103 -22 91 -20 275 -28 511 -22 l248 5 27 32 c15 17
31 41 34 54 7 27 -1 27 219 -14 72 -14 155 -29 185 -34 190 -33 193 -34 183
-94 l-6 -38 -86 7 c-47 4 -122 13 -166 21 -98 17 -107 17 -75 -1 14 -7 54 -19
90 -25 35 -6 87 -20 115 -31 27 -10 65 -19 83 -19 17 0 32 -5 32 -10 0 -6 6
-9 12 -8 7 2 14 -7 16 -19 3 -19 -1 -22 -30 -21 -18 0 -127 -9 -243 -21 -372
-38 -416 -38 -593 5 -35 8 -109 21 -165 29 -56 7 -147 25 -202 39 -55 14 -114
26 -132 26 -17 0 -64 7 -104 15 -40 9 -74 14 -76 11 -2 -2 -24 2 -49 10 -54
16 -112 17 -184 4 -30 -6 -82 -14 -115 -19 -33 -5 -94 -15 -135 -22 -41 -7
-94 -11 -118 -10 -24 1 -52 -4 -64 -10 -12 -6 -49 -13 -82 -15 -136 -6 -177
-13 -203 -34 -14 -11 -33 -20 -43 -20 -9 0 -25 -9 -36 -21 -17 -19 -17 -23 -3
-47 17 -31 9 -29 334 -117 132 -36 263 -72 291 -80 28 -8 56 -15 63 -15 36 0
189 -79 231 -118 l35 -34 -27 -21 c-69 -55 -87 -67 -101 -67 -8 0 -20 -6 -26
-14 -6 -8 -35 -24 -63 -36 -33 -14 -47 -25 -39 -30 19 -11 -55 -23 -76 -12
-10 5 -36 12 -58 15 -22 4 -94 22 -160 41 -66 19 -192 56 -280 81 -88 25 -196
57 -240 70 -44 13 -213 62 -375 109 -162 47 -320 92 -350 101 -168 49 -199 58
-240 72 -25 8 -77 23 -115 34 -61 16 -268 77 -415 123 -25 8 -79 24 -120 36
-69 20 -206 63 -305 95 -22 7 -65 20 -95 28 -175 49 -235 76 -227 100 2 7 21
13 43 15 21 1 68 7 104 12 58 9 543 40 630 40 46 0 70 -14 52 -32 -16 -16 -15
-49 1 -72 12 -17 39 -26 177 -62 104 -26 234 -33 394 -19 83 8 246 21 361 30
241 19 277 31 242 78 -8 12 -37 21 -82 28 -39 6 -106 19 -150 30 -71 17 -98
18 -240 11 -168 -9 -185 -8 -185 13 0 25 27 32 165 44 77 7 165 16 195 22 94
16 247 29 415 35 88 4 161 7 162 8 1 0 68 2 149 3 96 2 150 -1 155 -8z m3424
-209 c82 -10 117 -22 104 -35 -11 -10 -247 34 -256 48 -4 6 7 8 28 4 19 -4 75
-11 124 -17z m-2681 -661 c-8 -14 -24 -10 -24 6 0 9 6 12 15 9 8 -4 12 -10 9
-15z m-217 -205 c-3 -3 -12 -4 -19 -1 -8 3 -5 6 6 6 11 1 17 -2 13 -5z m4302
-539 c26 -63 89 -124 156 -152 25 -10 45 -21 45 -24 0 -4 -21 -14 -47 -24 -64
-25 -136 -99 -159 -164 -10 -28 -21 -51 -24 -51 -3 0 -14 23 -24 51 -22 64
-93 138 -158 164 -27 11 -48 23 -48 26 0 3 25 16 55 28 63 26 124 89 152 156
10 25 21 45 24 45 3 0 16 -25 28 -55z"/>
<path d="M4865 8570 c-3 -5 -1 -10 4 -10 6 0 11 5 11 10 0 6 -2 10 -4 10 -3 0
-8 -4 -11 -10z"/>
<path d="M1120 7935 c0 -8 9 -15 20 -15 11 0 20 2 20 5 0 2 -9 9 -20 15 -16 9
-20 8 -20 -5z"/>
<path d="M5585 7602 c-16 -8 -32 -18 -35 -21 -3 -3 -21 -15 -40 -25 -19 -11
-55 -32 -78 -46 l-44 -27 49 -6 c45 -5 50 -3 86 31 35 33 104 114 95 111 -1
-1 -16 -8 -33 -17z"/>
<path d="M5040 7472 c-98 -54 -113 -178 -31 -254 37 -35 45 -38 99 -38 45 0
67 5 92 23 93 62 97 194 8 260 -39 29 -123 34 -168 9z m133 -84 c33 -39 18
-97 -32 -118 -83 -34 -142 91 -63 135 33 18 71 11 95 -17z"/>
<path d="M3930 6630 c-22 -22 -77 -105 -103 -156 -13 -26 -14 -31 -1 -31 8 0
14 9 14 19 0 10 5 18 11 18 5 0 7 5 4 10 -3 6 -3 10 2 10 4 0 21 24 37 53 16
28 38 62 49 75 25 28 14 29 -13 2z"/>
<path d="M5479 6451 c-16 -27 -15 -30 18 -85 l35 -57 64 2 c43 2 69 -2 81 -12
34 -27 60 -37 73 -29 10 6 6 14 -16 34 -54 49 -112 79 -140 72 -31 -8 -54 8
-54 39 0 29 -9 36 -30 25 -14 -8 -16 -5 -12 15 6 32 1 31 -19 -4z"/>
<path d="M5027 6426 c-106 -38 -197 -153 -196 -246 1 -25 1 -25 9 2 7 23 33
59 42 59 2 0 14 2 26 6 18 4 20 8 10 14 -8 5 -1 7 17 5 17 -2 49 6 75 19 53
27 108 34 168 23 51 -9 115 -69 144 -135 10 -24 23 -43 28 -43 12 0 13 -20 1
-39 -5 -8 -16 -11 -31 -6 -19 6 -21 12 -15 41 7 40 -24 104 -61 129 -22 14
-24 13 -50 -33 -15 -26 -36 -54 -47 -63 -11 -9 -21 -27 -22 -40 -4 -38 -4 -39
-19 -39 -7 0 -16 -9 -19 -20 -3 -13 -14 -20 -30 -20 -44 0 -57 10 -57 44 0 33
-15 56 -37 56 -7 0 -13 -5 -13 -11 0 -5 5 -7 10 -4 6 4 3 -12 -6 -34 -15 -38
-15 -42 6 -78 11 -21 35 -48 53 -60 39 -25 87 -38 87 -23 0 8 15 9 44 5 64
-10 138 37 165 105 8 21 10 22 10 5 1 -31 -34 -81 -79 -114 -107 -77 -254 -33
-315 94 -24 51 -28 55 -61 55 -32 0 -35 -2 -28 -22 28 -93 88 -164 167 -198
147 -64 320 -1 391 143 21 41 26 65 26 127 0 66 -4 86 -31 138 -36 73 -101
134 -166 156 -56 19 -144 20 -196 2z m238 -86 c-5 -8 -11 -8 -17 -2 -6 6 -7
16 -3 22 5 8 11 8 17 2 6 -6 7 -16 3 -22z m-26 -204 c7 -8 11 -30 9 -48 -3
-30 -6 -33 -40 -36 -33 -3 -38 0 -44 23 -14 57 42 101 75 61z"/>
<path d="M3804 6422 c3 -5 0 -13 -6 -15 -9 -4 -10 -6 -1 -6 17 -1 25 16 12 25
-7 4 -9 3 -5 -4z"/>
<path d="M5610 6409 c38 -25 88 -47 95 -41 3 4 5 1 3 -7 -2 -8 9 -17 25 -22
42 -11 30 10 -27 49 -29 19 -61 32 -80 32 -24 0 -28 -3 -16 -11z"/>
<path d="M6176 6405 c-25 -19 -24 -90 2 -119 20 -21 27 -49 40 -162 4 -34 13
-68 19 -75 7 -8 12 -30 12 -49 1 -19 2 -51 2 -70 1 -19 1 -48 0 -65 -1 -16 3
-58 9 -93 10 -54 9 -67 -4 -87 -18 -27 -22 -85 -6 -85 5 0 14 -9 20 -19 8 -16
2 -30 -35 -79 -32 -43 -45 -69 -45 -93 0 -19 -4 -51 -9 -71 -5 -21 -5 -38 -1
-38 4 0 5 -11 2 -25 -3 -20 -9 -24 -23 -20 -11 4 -19 2 -19 -4 0 -6 3 -11 8
-11 4 0 8 -11 8 -25 1 -14 -2 -22 -7 -19 -5 3 -9 2 -9 -3 1 -20 18 -28 62 -29
36 0 48 4 51 17 3 10 1 21 -3 26 -4 4 4 33 19 63 61 125 101 328 101 512 0
191 -47 393 -131 561 -22 42 -40 77 -42 77 -1 0 -10 -7 -21 -15z"/>
<path d="M3766 6354 c-8 -21 -8 -34 2 -34 4 0 8 11 8 25 2 29 -1 32 -10 9z"/>
<path d="M3931 6320 c-16 -23 -35 -58 -42 -78 -6 -20 -24 -59 -39 -87 -39 -71
-45 -135 -45 -440 1 -286 15 -435 41 -435 8 0 14 -10 14 -24 0 -35 24 -51 45
-30 12 12 15 26 10 51 -4 21 -2 33 5 33 6 0 9 -4 6 -9 -4 -5 -3 -11 2 -13 4
-1 20 -27 35 -56 27 -51 29 -92 5 -92 -5 0 -8 -6 -5 -14 3 -8 -1 -20 -9 -26
-35 -30 -6 -104 46 -115 33 -7 86 18 93 45 9 33 2 83 -13 90 -8 4 -23 11 -34
16 -31 16 -83 121 -125 254 -64 200 -74 270 -68 455 6 182 26 286 81 423 19
47 33 88 31 90 -2 2 -17 -15 -34 -38z m136 -1221 c2 -17 -1 -18 -12 -9 -8 7
-12 16 -9 21 9 16 20 10 21 -12z"/>
<path d="M5043 6274 c-18 -9 -39 -27 -48 -41 l-16 -24 25 16 c24 16 26 16 32
1 3 -9 16 -16 29 -16 12 0 28 -7 35 -15 7 -8 18 -15 25 -15 15 0 75 78 75 97
0 19 -117 17 -157 -3z"/>
<path d="M5760 6245 c0 -19 28 -50 37 -41 10 10 12 37 3 31 -5 -3 -16 2 -24
11 -15 14 -16 14 -16 -1z"/>
<path d="M5880 6193 c0 -2 9 -21 20 -43 11 -21 29 -64 41 -95 11 -30 25 -55
31 -55 7 0 7 5 1 13 -5 6 -10 27 -12 46 -4 51 -45 138 -65 138 -9 0 -16 -2
-16 -4z"/>
<path d="M6392 6010 c0 -14 2 -19 5 -12 2 6 2 18 0 25 -3 6 -5 1 -5 -13z"/>
<path d="M5755 6008 c-55 -31 -61 -91 -14 -137 61 -62 149 -27 149 59 0 72
-72 114 -135 78z"/>
<path d="M5962 5941 c-27 -20 -27 -64 0 -69 12 -2 19 6 23 32 10 49 4 58 -23
37z"/>
<path d="M3439 5851 c-38 -38 -44 -56 -39 -121 1 -14 9 -36 17 -50 29 -46 54
-60 116 -60 51 0 61 4 93 33 97 89 35 237 -100 237 -43 0 -53 -4 -87 -39z
m125 -21 c30 -11 59 -63 51 -91 -18 -56 -96 -78 -135 -39 -29 29 -27 84 5 115
26 27 41 30 79 15z"/>
<path d="M6140 5280 c-9 -6 -10 -10 -3 -10 6 0 15 5 18 10 8 12 4 12 -15 0z"/>
<path d="M5223 5189 c-48 -24 -68 -50 -85 -113 -20 -75 21 -164 93 -201 63
-33 176 -7 212 49 26 39 38 107 26 150 -14 51 -72 113 -117 126 -54 15 -82 12
-129 -11z m32 -89 c28 -22 55 -40 62 -40 20 0 43 -30 43 -55 0 -29 -32 -49
-66 -41 -24 6 -29 19 -25 67 1 19 -9 36 -39 62 -22 21 -40 39 -40 42 0 12 18
2 65 -35z"/>
<path d="M6100 5179 c0 -5 5 -7 10 -4 6 3 10 8 10 11 0 2 -4 4 -10 4 -5 0 -10
-5 -10 -11z"/>
<path d="M5569 4953 c-5 -16 -15 -41 -21 -56 -13 -34 3 -77 28 -77 10 0 15 3
11 6 -8 9 14 50 52 98 17 21 31 43 31 47 0 5 -20 9 -45 9 -41 0 -47 -3 -56
-27z"/>
<path d="M3816 4742 c-3 -5 1 -9 9 -9 8 0 12 4 9 9 -3 4 -7 8 -9 8 -2 0 -6 -4
-9 -8z"/>
<path d="M5713 4700 c-24 -11 -43 -24 -43 -30 0 -14 5 -13 50 10 22 11 40 25
40 30 0 6 -1 10 -2 9 -2 0 -22 -9 -45 -19z"/>
<path d="M4240 4610 c0 -5 5 -10 11 -10 5 0 7 5 4 10 -3 6 -8 10 -11 10 -2 0
-4 -4 -4 -10z"/>
<path d="M4903 4553 c9 -2 23 -2 30 0 6 3 -1 5 -18 5 -16 0 -22 -2 -12 -5z"/>
<path d="M2528 3263 c34 -2 90 -2 125 0 34 2 6 3 -63 3 -69 0 -97 -1 -62 -3z"/>
<path d="M2272 3093 c-6 -29 -15 -71 -18 -93 l-7 -40 38 0 37 0 -7 38 c-3 20
-12 62 -19 92 l-12 55 -12 -52z"/>
<path d="M2862 3072 c-7 -37 -15 -78 -19 -90 -5 -20 -2 -22 37 -22 35 0 40 3
36 18 -3 9 -12 48 -20 85 -7 37 -16 70 -18 72 -2 2 -9 -26 -16 -63z"/>
<path d="M7577 6312 c-32 -4 -32 -25 0 -30 12 -2 23 4 27 14 8 20 8 20 -27 16z"/>
<path d="M4315 5964 c-54 -59 -17 -154 59 -154 82 0 119 95 60 154 -36 36 -86
36 -119 0z"/>
<path d="M7480 5400 c0 -22 -4 -40 -10 -40 -5 0 -8 -51 -7 -122 1 -98 3 -113
9 -73 9 62 19 275 13 275 -3 0 -5 -18 -5 -40z"/>
<path d="M7510 5270 l0 -40 43 0 c31 0 38 3 27 10 -8 5 -25 10 -37 10 -18 0
-23 6 -23 24 0 18 7 26 23 29 19 4 18 4 -5 6 -26 1 -28 -2 -28 -39z"/>
<path d="M7765 5250 c-3 -5 1 -10 9 -10 8 0 18 5 21 10 3 6 -1 10 -9 10 -8 0
-18 -4 -21 -10z"/>
<path d="M7600 5240 c0 -5 5 -10 10 -10 6 0 10 5 10 10 0 6 -4 10 -10 10 -5 0
-10 -4 -10 -10z"/>
<path d="M7480 5081 c0 -5 -3 -16 -6 -25 -4 -11 -1 -16 10 -16 18 0 22 35 6
45 -5 3 -10 2 -10 -4z"/>
<path d="M7460 5001 c0 -21 38 -25 57 -5 15 15 14 16 -29 19 -20 1 -28 -3 -28
-14z"/>
<path d="M7461 4944 c0 -11 3 -14 6 -6 3 7 2 16 -1 19 -3 4 -6 -2 -5 -13z"/>
<path d="M7450 4861 c0 -6 5 -13 10 -16 6 -3 10 1 10 9 0 9 -4 16 -10 16 -5 0
-10 -4 -10 -9z"/>
<path d="M6866 3175 c-22 -22 -28 -70 -24 -183 2 -81 7 -104 22 -121 24 -26
50 -27 76 -1 18 18 20 33 20 153 0 117 -2 136 -18 150 -23 21 -56 22 -76 2z"/>
<path d="M1900 3020 l0 -160 35 0 c64 0 75 22 75 158 0 141 -9 162 -71 162
l-39 0 0 -160z"/>
<path d="M4107 3120 c-4 -14 -13 -53 -20 -87 l-14 -63 39 0 c35 0 38 2 33 23
-3 12 -11 51 -19 87 -10 52 -14 60 -19 40z"/>
<path d="M4390 3115 l0 -65 35 0 c50 0 79 31 71 78 -6 42 -19 52 -68 52 l-38
0 0 -65z"/>
<path d="M5484 3176 c-35 -26 -31 -315 5 -316 3 0 16 -3 28 -6 14 -4 28 1 42
15 19 19 21 32 21 151 0 117 -2 132 -20 150 -24 24 -49 25 -76 6z"/>
<path d="M3500 2600 c-16 -16 -20 -33 -20 -89 0 -50 4 -74 16 -85 18 -19 20
-19 44 -6 24 13 34 59 25 126 -8 66 -33 86 -65 54z"/>
<path d="M3806 2594 c-11 -29 -6 -160 6 -172 16 -16 33 -15 52 4 20 19 23 153
4 172 -17 17 -55 15 -62 -4z"/>
<path d="M4252 2548 c-16 -64 -16 -68 13 -68 29 0 29 -1 12 65 l-13 50 -12
-47z"/>
<path d="M4693 2530 l-10 -50 28 0 28 0 -14 46 c-7 25 -16 48 -18 50 -2 3 -9
-18 -14 -46z"/>
<path d="M5044 2530 l-11 -50 28 0 27 0 -14 47 c-8 25 -15 48 -17 49 -2 2 -8
-19 -13 -46z"/>
<path d="M6480 2570 c0 -39 2 -41 26 -38 15 2 32 11 38 21 15 24 -3 51 -38 55
-24 3 -26 1 -26 -38z"/>
<path d="M6480 2460 c0 -41 1 -41 33 -38 29 3 32 6 32 38 0 32 -3 35 -32 38
-32 3 -33 3 -33 -38z"/>
<path d="M6930 2570 c0 -38 2 -40 30 -40 23 0 31 5 36 25 8 31 -10 55 -42 55
-21 0 -24 -5 -24 -40z"/>
<path d="M7587 2570 c-14 -35 -25 -89 -19 -94 8 -9 52 -7 52 2 -1 27 -28 104
-33 92z"/>
<path d="M5320 2210 c0 -17 47 -30 105 -30 44 0 56 4 65 20 10 19 8 20 -80 20
-55 0 -90 -4 -90 -10z"/>
<path d="M4695 2171 c-8 -14 13 -24 70 -34 27 -4 65 -10 83 -14 38 -6 41 5 8
36 -20 19 -28 21 -45 12 -15 -8 -27 -9 -40 -1 -24 13 -68 13 -76 1z"/>
<path d="M5013 2123 c-22 -8 -14 -23 11 -23 30 0 42 15 20 24 -9 3 -16 6 -17
5 -1 0 -8 -3 -14 -6z"/>
</g>
</svg>
